<svg width="80" height="80" viewBox="0 0 80 80" xmlns="http://www.w3.org/2000/svg">
  <!-- 背景圆形 -->
  <circle cx="40" cy="40" r="40" fill="#b8860b"/>
  
  <!-- 头部轮廓 -->
  <circle cx="40" cy="35" r="20" fill="#FFE0B2" stroke="#E65100" stroke-width="1"/>
  
  <!-- 头发 -->
  <path d="M40 15 Q30 10 25 15 Q20 20 18 25 Q18 30 18 35 Q20 40 25 45 Q30 50 40 50 Q50 50 55 45 Q60 40 62 35 Q62 30 62 25 Q60 20 55 15 Q50 10 40 15" fill="#FF6F00"/>
  
  <!-- 眼睛 -->
  <ellipse cx="33" cy="30" rx="2" ry="3" fill="#1A237E"/>
  <ellipse cx="47" cy="30" rx="2" ry="3" fill="#1A237E"/>
  <circle cx="34" cy="29" r="1" fill="white"/>
  <circle cx="48" cy="29" r="1" fill="white"/>
  
  <!-- 眉毛 -->
  <path d="M30 27 Q33 26 36 27" fill="none" stroke="#FF6F00" stroke-width="1.5" stroke-linecap="round"/>
  <path d="M44 27 Q47 26 50 27" fill="none" stroke="#FF6F00" stroke-width="1.5" stroke-linecap="round"/>
  
  <!-- 嘴巴 -->
  <path d="M34 42 Q40 43 46 42" fill="none" stroke="#E65100" stroke-width="1.5" stroke-linecap="round"/>
  
  <!-- 装饰元素 - 太阳 -->
  <circle cx="55" cy="25" r="5" fill="#FFD700"/>
  <path d="M55 18 L55 21" fill="none" stroke="#FFD700" stroke-width="1.5" stroke-linecap="round"/>
  <path d="M55 29 L55 32" fill="none" stroke="#FFD700" stroke-width="1.5" stroke-linecap="round"/>
  <path d="M48 25 L51 25" fill="none" stroke="#FFD700" stroke-width="1.5" stroke-linecap="round"/>
  <path d="M59 25 L62 25" fill="none" stroke="#FFD700" stroke-width="1.5" stroke-linecap="round"/>
  <path d="M50 20 L52 22" fill="none" stroke="#FFD700" stroke-width="1.5" stroke-linecap="round"/>
  <path d="M58 28 L60 26" fill="none" stroke="#FFD700" stroke-width="1.5" stroke-linecap="round"/>
  <path d="M50 30 L52 28" fill="none" stroke="#FFD700" stroke-width="1.5" stroke-linecap="round"/>
  <path d="M58 22 L60 24" fill="none" stroke="#FFD700" stroke-width="1.5" stroke-linecap="round"/>
</svg>