<svg width="80" height="80" viewBox="0 0 80 80" xmlns="http://www.w3.org/2000/svg">
  <!-- 背景圆形 -->
  <circle cx="40" cy="40" r="40" fill="#b8860b"/>
  
  <!-- 头部轮廓 -->
  <circle cx="40" cy="35" r="20" fill="#FFE0B2" stroke="#E65100" stroke-width="1"/>
  
  <!-- 头发 -->
  <path d="M40 15 Q35 10 30 12 Q25 15 20 20 Q18 25 18 30 Q20 35 25 40 Q30 45 40 50 Q50 45 55 40 Q60 35 62 30 Q62 25 60 20 Q55 15 50 12 Q45 10 40 15" fill="#5D4037"/>
  
  <!-- 眼睛 -->
  <ellipse cx="33" cy="30" rx="2" ry="3" fill="#1A237E"/>
  <ellipse cx="47" cy="30" rx="2" ry="3" fill="#1A237E"/>
  <circle cx="34" cy="29" r="1" fill="white"/>
  <circle cx="48" cy="29" r="1" fill="white"/>
  
  <!-- 眉毛 -->
  <path d="M30 27 Q33 25 36 27" fill="none" stroke="#5D4037" stroke-width="1.5" stroke-linecap="round"/>
  <path d="M44 27 Q47 25 50 27" fill="none" stroke="#5D4037" stroke-width="1.5" stroke-linecap="round"/>
  
  <!-- 嘴巴 -->
  <path d="M34 42 Q40 43 46 42" fill="none" stroke="#E65100" stroke-width="1.5" stroke-linecap="round"/>
  
  <!-- 装饰元素 - 指挥棒 -->
  <line x1="50" y1="35" x2="60" y2="25" stroke="#FFD700" stroke-width="2" stroke-linecap="round"/>
  <circle cx="60" cy="25" r="3" fill="#FFD700"/>
</svg>